<svg width="231" height="55" viewBox="0 0 231 55" fill="none" xmlns="http://www.w3.org/2000/svg">
<path d="M49.46 43.6C51.4333 43.6 53.28 43.2667 55 42.6C56.72 41.9333 58.1067 40.9333 59.16 39.6C60.2267 38.2667 60.76 36.6067 60.76 34.62C60.76 33.1933 60.4933 32.0133 59.96 31.08C59.44 30.1333 58.7667 29.3733 57.94 28.8C57.1267 28.2267 56.28 27.78 55.4 27.46C54.5333 27.14 53.7467 26.8867 53.04 26.7L47.88 25.26C47.24 25.0867 46.6 24.8733 45.96 24.62C45.32 24.3533 44.7867 24 44.36 23.56C43.9333 23.1067 43.72 22.5267 43.72 21.82C43.72 21.0733 43.9667 20.42 44.46 19.86C44.9667 19.3 45.6267 18.8667 46.44 18.56C47.2667 18.2533 48.16 18.1133 49.12 18.14C50.6 18.18 51.9333 18.6133 53.12 19.44C54.3067 20.2667 55.0533 21.44 55.36 22.96L60.54 22.06C59.9 19.3933 58.5867 17.3333 56.6 15.88C54.6133 14.4133 52.14 13.6667 49.18 13.64C47.2333 13.6267 45.46 13.94 43.86 14.58C42.2733 15.2067 41.0067 16.1467 40.06 17.4C39.1267 18.6533 38.66 20.2067 38.66 22.06C38.66 23.3267 38.8667 24.3933 39.28 25.26C39.7067 26.1133 40.2467 26.8133 40.9 27.36C41.5667 27.9067 42.2667 28.34 43 28.66C43.7467 28.98 44.44 29.2333 45.08 29.42L52.52 31.62C54.6533 32.26 55.72 33.3667 55.72 34.94C55.72 35.82 55.4333 36.5733 54.86 37.2C54.3 37.8133 53.5667 38.28 52.66 38.6C51.7533 38.92 50.7867 39.08 49.76 39.08C48.0267 39.08 46.4933 38.6133 45.16 37.68C43.84 36.7467 42.9667 35.4267 42.54 33.72L37.54 34.48C37.8467 36.36 38.54 37.9867 39.62 39.36C40.7133 40.72 42.1 41.7667 43.78 42.5C45.4733 43.2333 47.3667 43.6 49.46 43.6ZM67.5384 52.6H72.0584L84.0984 21.4H79.2784L73.4184 36.86L67.3784 21.4H62.3584L71.0984 42.84L67.5384 52.6ZM87.0413 43H91.9213V31.9C91.9213 30.1533 92.1679 28.8067 92.6613 27.86C93.1679 26.9 93.8079 26.24 94.5813 25.88C95.3679 25.5067 96.1679 25.32 96.9813 25.32C98.1279 25.32 99.0413 25.5733 99.7213 26.08C100.401 26.5733 100.901 27.2067 101.221 27.98C101.555 28.74 101.768 29.5333 101.861 30.36C101.968 31.1867 102.021 31.9333 102.021 32.6V43H106.901V30.94C106.901 30.4333 106.855 29.76 106.761 28.92C106.681 28.08 106.495 27.1933 106.201 26.26C105.908 25.3267 105.455 24.4467 104.841 23.62C104.228 22.78 103.395 22.1 102.341 21.58C101.301 21.0467 99.9879 20.78 98.4013 20.78C96.8413 20.78 95.4679 21.0533 94.2812 21.6C93.1079 22.1333 92.1279 22.8667 91.3413 23.8V21.4H87.0413V43ZM124.78 43V38.96C123.434 39.16 122.234 39.2133 121.18 39.12C120.127 39.0267 119.36 38.58 118.88 37.78C118.627 37.3667 118.487 36.8333 118.46 36.18C118.447 35.5133 118.44 34.7533 118.44 33.9V25.18H124.78V21.4H118.44V15.4H113.64V21.4H109.72V25.18H113.64V34.18C113.64 35.42 113.654 36.5267 113.68 37.5C113.707 38.46 113.967 39.4067 114.46 40.34C115.02 41.3667 115.84 42.12 116.92 42.6C118 43.0667 119.22 43.3133 120.58 43.34C121.954 43.38 123.354 43.2667 124.78 43ZM129.385 43H134.265V31.9C134.265 30.1533 134.512 28.8067 135.005 27.86C135.512 26.9 136.152 26.24 136.925 25.88C137.712 25.5067 138.512 25.32 139.325 25.32C140.472 25.32 141.385 25.5733 142.065 26.08C142.745 26.5733 143.245 27.2067 143.565 27.98C143.898 28.74 144.112 29.5333 144.205 30.36C144.312 31.1867 144.365 31.9333 144.365 32.6V43H149.245V30.94C149.245 30.4333 149.198 29.76 149.105 28.92C149.025 28.08 148.838 27.1933 148.545 26.26C148.252 25.3267 147.798 24.4467 147.185 23.62C146.572 22.78 145.738 22.1 144.685 21.58C143.645 21.0467 142.332 20.78 140.745 20.78C139.185 20.78 137.812 21.0533 136.625 21.6C135.452 22.1333 134.472 22.8667 133.685 23.8V14.2H129.385V43ZM164.284 43.6C166.364 43.6 168.264 43.0667 169.984 42C171.717 40.92 172.997 39.4 173.824 37.44L169.064 36C168.104 38.0533 166.417 39.08 164.004 39.08C162.364 39.08 161.071 38.6067 160.124 37.66C159.177 36.7 158.611 35.3267 158.424 33.54H174.064C174.251 30.94 173.964 28.6867 173.204 26.78C172.444 24.8733 171.277 23.4 169.704 22.36C168.144 21.32 166.244 20.8 164.004 20.8C161.884 20.8 160.017 21.28 158.404 22.24C156.791 23.1867 155.531 24.5333 154.624 26.28C153.717 28.0267 153.264 30.08 153.264 32.44C153.264 34.6267 153.724 36.56 154.644 38.24C155.577 39.92 156.871 41.2333 158.524 42.18C160.177 43.1267 162.097 43.6 164.284 43.6ZM164.204 25.02C165.697 25.02 166.844 25.4133 167.644 26.2C168.457 26.9733 168.971 28.2067 169.184 29.9H158.544C159.117 26.6467 161.004 25.02 164.204 25.02ZM186.867 43.6C189.653 43.6 191.833 42.98 193.407 41.74C194.993 40.5 195.787 38.7933 195.787 36.62C195.787 34.94 195.253 33.62 194.187 32.66C193.133 31.7 191.313 30.8867 188.727 30.22C187.047 29.7933 185.78 29.4333 184.927 29.14C184.087 28.8467 183.527 28.5533 183.247 28.26C182.967 27.9667 182.827 27.6133 182.827 27.2C182.827 26.48 183.173 25.92 183.867 25.52C184.56 25.1067 185.473 24.9267 186.607 24.98C187.78 25.0467 188.72 25.3467 189.427 25.88C190.147 26.4133 190.573 27.14 190.707 28.06L195.627 27.18C195.36 25.2333 194.407 23.6867 192.767 22.54C191.127 21.38 189.047 20.8 186.527 20.8C183.953 20.8 181.893 21.4 180.347 22.6C178.8 23.8 178.027 25.4133 178.027 27.44C178.027 29.0533 178.567 30.3267 179.647 31.26C180.74 32.1933 182.64 33.0133 185.347 33.72C186.973 34.1467 188.173 34.5067 188.947 34.8C189.733 35.08 190.247 35.3667 190.487 35.66C190.727 35.9533 190.847 36.3467 190.847 36.84C190.847 37.64 190.527 38.2733 189.887 38.74C189.247 39.1933 188.353 39.42 187.207 39.42C185.887 39.42 184.787 39.1133 183.907 38.5C183.04 37.8867 182.487 37.0467 182.247 35.98L177.327 36.74C177.687 38.9133 178.7 40.6 180.367 41.8C182.033 43 184.2 43.6 186.867 43.6ZM200.567 18.12H205.387V13.7H200.567V18.12ZM200.567 43H205.387V21.4H200.567V43ZM219.718 43.6C222.505 43.6 224.685 42.98 226.258 41.74C227.845 40.5 228.638 38.7933 228.638 36.62C228.638 34.94 228.105 33.62 227.038 32.66C225.985 31.7 224.165 30.8867 221.578 30.22C219.898 29.7933 218.631 29.4333 217.778 29.14C216.938 28.8467 216.378 28.5533 216.098 28.26C215.818 27.9667 215.678 27.6133 215.678 27.2C215.678 26.48 216.025 25.92 216.718 25.52C217.411 25.1067 218.325 24.9267 219.458 24.98C220.631 25.0467 221.571 25.3467 222.278 25.88C222.998 26.4133 223.425 27.14 223.558 28.06L228.478 27.18C228.211 25.2333 227.258 23.6867 225.618 22.54C223.978 21.38 221.898 20.8 219.378 20.8C216.805 20.8 214.745 21.4 213.198 22.6C211.651 23.8 210.878 25.4133 210.878 27.44C210.878 29.0533 211.418 30.3267 212.498 31.26C213.591 32.1933 215.491 33.0133 218.198 33.72C219.825 34.1467 221.025 34.5067 221.798 34.8C222.585 35.08 223.098 35.3667 223.338 35.66C223.578 35.9533 223.698 36.3467 223.698 36.84C223.698 37.64 223.378 38.2733 222.738 38.74C222.098 39.1933 221.205 39.42 220.058 39.42C218.738 39.42 217.638 39.1133 216.758 38.5C215.891 37.8867 215.338 37.0467 215.098 35.98L210.178 36.74C210.538 38.9133 211.551 40.6 213.218 41.8C214.885 43 217.051 43.6 219.718 43.6Z" fill="white"/>
<circle cx="15" cy="35" r="11" fill="url(#paint0_linear)"/>
<path d="M1 22.0878L11.1695 16L21 22.0878V34.0293L11.0565 40L1 34.0293V22.0878Z" fill="white" stroke="white"/>
<defs>
<linearGradient id="paint0_linear" x1="23.25" y1="42.15" x2="9.5" y2="26.75" gradientUnits="userSpaceOnUse">
<stop stop-color="#0F0F0F"/>
<stop offset="1" stop-color="#302B2B"/>
</linearGradient>
</defs>
</svg>
